<svg xmlns="http://www.w3.org/2000/svg" xmlns:xlink="http://www.w3.org/1999/xlink" version="1.2" width="210.00mm" height="297.00mm" viewBox="0 0 119.5016 169.0094">
<!-- Page: 1/1 -->
<text transform="translate(5.6906, 2.8453)" font-family="Century Schoolbook L" font-size="2.2001" text-anchor="start" fill="currentColor">
<tspan>
 </tspan>
</text>
<text transform="translate(44.3863, 6.4402)" font-family="Century Schoolbook L" font-weight="bold" font-size="3.4927" text-anchor="start" fill="currentColor">
<tspan>
Messe de Angelis</tspan>
</text>
<text transform="translate(26.8879, 9.9402)" font-family="Century Schoolbook L" font-weight="bold" font-size="2.4696" text-anchor="start" fill="currentColor">
<tspan>
Messe à 3 voix mixtes avec alternance de grégorien</tspan>
</text>
<text transform="translate(87.9304, 13.4402)" font-family="Century Schoolbook L" font-size="2.2001" text-anchor="start" fill="currentColor">
<tspan>
Abbé Jean Robin († 2002)</tspan>
</text>
<text transform="translate(100.9049, 16.9402)" font-family="Century Schoolbook L" font-size="2.2001" text-anchor="start" fill="currentColor">
<tspan>
Pâques 1949</tspan>
</text>
<rect transform="translate(97.7274, 41.2673)" x="0.0000" y="-2.0000" width="0.1900" height="4.0000" ry="0.0000" fill="currentColor"/>
<rect transform="translate(48.8026, 41.2673)" x="0.0000" y="-2.0000" width="0.1900" height="4.0000" ry="0.0000" fill="currentColor"/>
<rect transform="translate(113.6210, 21.6600)" x="0.0000" y="-2.0000" width="0.1900" height="4.0000" ry="0.0000" fill="currentColor"/>
<rect transform="translate(97.7274, 31.0669)" x="0.0000" y="-2.0000" width="0.1900" height="4.0000" ry="0.0000" fill="currentColor"/>
<rect transform="translate(113.6210, 31.0669)" x="0.0000" y="-2.0000" width="0.1900" height="4.0000" ry="0.0000" fill="currentColor"/>
<rect transform="translate(113.6210, 41.2673)" x="0.0000" y="-2.0000" width="0.1900" height="4.0000" ry="0.0000" fill="currentColor"/>
<rect transform="translate(48.8026, 31.0669)" x="0.0000" y="-2.0000" width="0.1900" height="4.0000" ry="0.0000" fill="currentColor"/>
<rect transform="translate(97.7274, 21.6600)" x="0.0000" y="-2.0000" width="0.1900" height="4.0000" ry="0.0000" fill="currentColor"/>
<rect transform="translate(72.4127, 41.2673)" x="0.0000" y="-2.0000" width="0.1900" height="4.0000" ry="0.0000" fill="currentColor"/>
<rect transform="translate(48.8026, 21.6600)" x="0.0000" y="-2.0000" width="0.1900" height="4.0000" ry="0.0000" fill="currentColor"/>
<rect transform="translate(72.4127, 21.6600)" x="0.0000" y="-2.0000" width="0.1900" height="4.0000" ry="0.0000" fill="currentColor"/>
<line transform="translate(14.2264, 23.6600)" stroke-linejoin="round" stroke-linecap="round" stroke-width="0.1000" stroke="currentColor" x1="0.0500" y1="-0.0000" x2="99.5346" y2="-0.0000"/>
<line transform="translate(14.2264, 22.6600)" stroke-linejoin="round" stroke-linecap="round" stroke-width="0.1000" stroke="currentColor" x1="0.0500" y1="-0.0000" x2="99.5346" y2="-0.0000"/>
<line transform="translate(14.2264, 21.6600)" stroke-linejoin="round" stroke-linecap="round" stroke-width="0.1000" stroke="currentColor" x1="0.0500" y1="-0.0000" x2="99.5346" y2="-0.0000"/>
<line transform="translate(14.2264, 20.6600)" stroke-linejoin="round" stroke-linecap="round" stroke-width="0.1000" stroke="currentColor" x1="0.0500" y1="-0.0000" x2="99.5346" y2="-0.0000"/>
<line transform="translate(14.2264, 19.6600)" stroke-linejoin="round" stroke-linecap="round" stroke-width="0.1000" stroke="currentColor" x1="0.0500" y1="-0.0000" x2="99.5346" y2="-0.0000"/>
<line transform="translate(14.2264, 33.0669)" stroke-linejoin="round" stroke-linecap="round" stroke-width="0.1000" stroke="currentColor" x1="0.0500" y1="-0.0000" x2="99.5346" y2="-0.0000"/>
<line transform="translate(14.2264, 32.0669)" stroke-linejoin="round" stroke-linecap="round" stroke-width="0.1000" stroke="currentColor" x1="0.0500" y1="-0.0000" x2="99.5346" y2="-0.0000"/>
<line transform="translate(14.2264, 31.0669)" stroke-linejoin="round" stroke-linecap="round" stroke-width="0.1000" stroke="currentColor" x1="0.0500" y1="-0.0000" x2="99.5346" y2="-0.0000"/>
<line transform="translate(14.2264, 30.0669)" stroke-linejoin="round" stroke-linecap="round" stroke-width="0.1000" stroke="currentColor" x1="0.0500" y1="-0.0000" x2="99.5346" y2="-0.0000"/>
<line transform="translate(14.2264, 29.0669)" stroke-linejoin="round" stroke-linecap="round" stroke-width="0.1000" stroke="currentColor" x1="0.0500" y1="-0.0000" x2="99.5346" y2="-0.0000"/>
<rect transform="translate(72.4127, 31.0669)" x="0.0000" y="-2.0000" width="0.1900" height="4.0000" ry="0.0000" fill="currentColor"/>
<line transform="translate(14.2264, 43.2673)" stroke-linejoin="round" stroke-linecap="round" stroke-width="0.1000" stroke="currentColor" x1="0.0500" y1="-0.0000" x2="99.5346" y2="-0.0000"/>
<line transform="translate(14.2264, 42.2673)" stroke-linejoin="round" stroke-linecap="round" stroke-width="0.1000" stroke="currentColor" x1="0.0500" y1="-0.0000" x2="99.5346" y2="-0.0000"/>
<line transform="translate(14.2264, 41.2673)" stroke-linejoin="round" stroke-linecap="round" stroke-width="0.1000" stroke="currentColor" x1="0.0500" y1="-0.0000" x2="99.5346" y2="-0.0000"/>
<line transform="translate(14.2264, 40.2673)" stroke-linejoin="round" stroke-linecap="round" stroke-width="0.1000" stroke="currentColor" x1="0.0500" y1="-0.0000" x2="99.5346" y2="-0.0000"/>
<line transform="translate(14.2264, 39.2673)" stroke-linejoin="round" stroke-linecap="round" stroke-width="0.1000" stroke="currentColor" x1="0.0500" y1="-0.0000" x2="99.5346" y2="-0.0000"/>
<rect transform="translate(49.8438, 21.6600)" x="-0.0650" y="0.1878" width="0.1300" height="3.1455" ry="0.0400" fill="currentColor"/>
<rect transform="translate(49.8438, 41.2673)" x="-0.0650" y="-0.3122" width="0.1300" height="3.3122" ry="0.0400" fill="currentColor"/>
<rect transform="translate(51.0300, 31.0669)" x="-0.0650" y="-2.5000" width="0.1300" height="3.3122" ry="0.0400" fill="currentColor"/>
<a style="color:inherit;" xlink:href="textedit:///Users/michel/Documents/Kitematic/musite/opt/musite/data/MesseBleue/ly/Abb-Jean-Robin-2002-Messe-de-Angelis.ly:51:22:23">
<path transform="translate(60.1927, 40.7673) scale(0.0040, -0.0040)" d="M220 138c56 0 109 -29 109 -91c0 -72 -56 -121 -103 -149c-36 -21 -76 -36 -117 -36c-56 0 -109 29 -109 91c0 72 56 121 103 149c36 21 76 36 117 36z" fill="currentColor"/>
</a>
<a style="color:inherit;" xlink:href="textedit:///Users/michel/Documents/Kitematic/musite/opt/musite/data/MesseBleue/ly/Abb-Jean-Robin-2002-Messe-de-Angelis.ly:38:28:29">
<path transform="translate(60.1927, 30.5669) scale(0.0040, -0.0040)" d="M220 138c56 0 109 -29 109 -91c0 -72 -56 -121 -103 -149c-36 -21 -76 -36 -117 -36c-56 0 -109 29 -109 91c0 72 56 121 103 149c36 21 76 36 117 36z" fill="currentColor"/>
</a>
<a style="color:inherit;" xlink:href="textedit:///Users/michel/Documents/Kitematic/musite/opt/musite/data/MesseBleue/ly/Abb-Jean-Robin-2002-Messe-de-Angelis.ly:25:29:30">
<path transform="translate(60.1927, 21.1600) scale(0.0040, -0.0040)" d="M220 138c56 0 109 -29 109 -91c0 -72 -56 -121 -103 -149c-36 -21 -76 -36 -117 -36c-56 0 -109 29 -109 91c0 72 56 121 103 149c36 21 76 36 117 36z" fill="currentColor"/>
</a>
<rect transform="translate(57.1426, 41.2673)" x="-0.0650" y="-0.8122" width="0.1300" height="2.8084" ry="0.0400" fill="currentColor"/>
<a style="color:inherit;" xlink:href="textedit:///Users/michel/Documents/Kitematic/musite/opt/musite/data/MesseBleue/ly/Abb-Jean-Robin-2002-Messe-de-Angelis.ly:51:20:21">
<path transform="translate(57.0776, 40.2673) scale(0.0040, -0.0040)" d="M220 138c56 0 109 -29 109 -91c0 -72 -56 -121 -103 -149c-36 -21 -76 -36 -117 -36c-56 0 -109 29 -109 91c0 72 56 121 103 149c36 21 76 36 117 36z" fill="currentColor"/>
</a>
<rect transform="translate(54.0275, 41.2673)" x="-0.0650" y="-1.3122" width="0.1300" height="3.1260" ry="0.0400" fill="currentColor"/>
<rect transform="translate(54.0275, 31.0669)" x="-0.0650" y="0.1878" width="0.1300" height="3.1455" ry="0.0400" fill="currentColor"/>
<rect transform="translate(54.0275, 21.6600)" x="-0.0650" y="-1.3122" width="0.1300" height="3.3122" ry="0.0400" fill="currentColor"/>
<a style="color:inherit;" xlink:href="textedit:///Users/michel/Documents/Kitematic/musite/opt/musite/data/MesseBleue/ly/Abb-Jean-Robin-2002-Messe-de-Angelis.ly:56:18:19">
<text transform="translate(53.9625, 46.7673)" font-family="Century Schoolbook L" font-size="2.4696" text-anchor="start" fill="currentColor">
<tspan>
e</tspan>
</text>
</a>
<a style="color:inherit;" xlink:href="textedit:///Users/michel/Documents/Kitematic/musite/opt/musite/data/MesseBleue/ly/Abb-Jean-Robin-2002-Messe-de-Angelis.ly:51:17:18">
<path transform="translate(53.9625, 39.7673) scale(0.0040, -0.0040)" d="M220 138c56 0 109 -29 109 -91c0 -72 -56 -121 -103 -149c-36 -21 -76 -36 -117 -36c-56 0 -109 29 -109 91c0 72 56 121 103 149c36 21 76 36 117 36z" fill="currentColor"/>
</a>
<a style="color:inherit;" xlink:href="textedit:///Users/michel/Documents/Kitematic/musite/opt/musite/data/MesseBleue/ly/Abb-Jean-Robin-2002-Messe-de-Angelis.ly:44:28:29">
<text transform="translate(53.9625, 36.6832)" font-family="Century Schoolbook L" font-size="2.4696" text-anchor="start" fill="currentColor">
<tspan>
e</tspan>
</text>
</a>
<a style="color:inherit;" xlink:href="textedit:///Users/michel/Documents/Kitematic/musite/opt/musite/data/MesseBleue/ly/Abb-Jean-Robin-2002-Messe-de-Angelis.ly:38:24:25">
<path transform="translate(53.9625, 31.0669) scale(0.0040, -0.0040)" d="M220 138c56 0 109 -29 109 -91c0 -72 -56 -121 -103 -149c-36 -21 -76 -36 -117 -36c-56 0 -109 29 -109 91c0 72 56 121 103 149c36 21 76 36 117 36z" fill="currentColor"/>
</a>
<a style="color:inherit;" xlink:href="textedit:///Users/michel/Documents/Kitematic/musite/opt/musite/data/MesseBleue/ly/Abb-Jean-Robin-2002-Messe-de-Angelis.ly:31:27:28">
<text transform="translate(53.9625, 26.6884)" font-family="Century Schoolbook L" font-size="2.4696" text-anchor="start" fill="currentColor">
<tspan>
e</tspan>
</text>
</a>
<a style="color:inherit;" xlink:href="textedit:///Users/michel/Documents/Kitematic/musite/opt/musite/data/MesseBleue/ly/Abb-Jean-Robin-2002-Messe-de-Angelis.ly:25:26:27">
<path transform="translate(53.9625, 20.1600) scale(0.0040, -0.0040)" d="M220 138c56 0 109 -29 109 -91c0 -72 -56 -121 -103 -149c-36 -21 -76 -36 -117 -36c-56 0 -109 29 -109 91c0 72 56 121 103 149c36 21 76 36 117 36z" fill="currentColor"/>
</a>
<rect transform="translate(43.8354, 21.6600)" x="-0.0650" y="-2.7281" width="0.1300" height="2.5403" ry="0.0400" fill="currentColor"/>
<a style="color:inherit;" xlink:href="textedit:///Users/michel/Documents/Kitematic/musite/opt/musite/data/MesseBleue/ly/Abb-Jean-Robin-2002-Messe-de-Angelis.ly:51:7:8">
<path transform="translate(42.5842, 41.2673) scale(0.0040, -0.0040)" d="M220 138c56 0 109 -29 109 -91c0 -72 -56 -121 -103 -149c-36 -21 -76 -36 -117 -36c-56 0 -109 29 -109 91c0 72 56 121 103 149c36 21 76 36 117 36z" fill="currentColor"/>
</a>
<a style="color:inherit;" xlink:href="textedit:///Users/michel/Documents/Kitematic/musite/opt/musite/data/MesseBleue/ly/Abb-Jean-Robin-2002-Messe-de-Angelis.ly:25:13:14">
<path transform="translate(42.5842, 21.6600) scale(0.0040, -0.0040)" d="M220 138c56 0 109 -29 109 -91c0 -72 -56 -121 -103 -149c-36 -21 -76 -36 -117 -36c-56 0 -109 29 -109 91c0 72 56 121 103 149c36 21 76 36 117 36z" fill="currentColor"/>
</a>
<rect transform="translate(40.7203, 21.6600)" x="-0.0650" y="-2.4619" width="0.1300" height="2.7740" ry="0.0400" fill="currentColor"/>
<a style="color:inherit;" xlink:href="textedit:///Users/michel/Documents/Kitematic/musite/opt/musite/data/MesseBleue/ly/Abb-Jean-Robin-2002-Messe-de-Angelis.ly:25:9:10">
<path transform="translate(39.4691, 22.1600) scale(0.0040, -0.0040)" d="M220 138c56 0 109 -29 109 -91c0 -72 -56 -121 -103 -149c-36 -21 -76 -36 -117 -36c-56 0 -109 29 -109 91c0 72 56 121 103 149c36 21 76 36 117 36z" fill="currentColor"/>
</a>
<rect transform="translate(36.4189, 31.0669)" x="-0.0650" y="0.1878" width="0.1300" height="3.1455" ry="0.0400" fill="currentColor"/>
<path transform="translate(38.1201, 30.5669) scale(0.0040, -0.0040)" d="M0 0c0 31 25 56 56 56s56 -25 56 -56s-25 -56 -56 -56s-56 25 -56 56z" fill="currentColor"/>
<rect transform="translate(37.6051, 21.6600)" x="-0.0650" y="-2.1956" width="0.1300" height="3.0077" ry="0.0400" fill="currentColor"/>
<a style="color:inherit;" xlink:href="textedit:///Users/michel/Documents/Kitematic/musite/opt/musite/data/MesseBleue/ly/Abb-Jean-Robin-2002-Messe-de-Angelis.ly:38:11:12">
<path transform="translate(36.3539, 31.0669) scale(0.0040, -0.0040)" d="M220 138c56 0 109 -29 109 -91c0 -72 -56 -121 -103 -149c-36 -21 -76 -36 -117 -36c-56 0 -109 29 -109 91c0 72 56 121 103 149c36 21 76 36 117 36z" fill="currentColor"/>
</a>
<a style="color:inherit;" xlink:href="textedit:///Users/michel/Documents/Kitematic/musite/opt/musite/data/MesseBleue/ly/Abb-Jean-Robin-2002-Messe-de-Angelis.ly:31:5:6">
<text transform="translate(36.3539, 26.6884)" font-family="Century Schoolbook L" font-size="2.4696" text-anchor="start" fill="currentColor">
<tspan>
-</tspan>
</text>
</a>
<a style="color:inherit;" xlink:href="textedit:///Users/michel/Documents/Kitematic/musite/opt/musite/data/MesseBleue/ly/Abb-Jean-Robin-2002-Messe-de-Angelis.ly:25:6:7">
<path transform="translate(36.3539, 22.6600) scale(0.0040, -0.0040)" d="M220 138c56 0 109 -29 109 -91c0 -72 -56 -121 -103 -149c-36 -21 -76 -36 -117 -36c-56 0 -109 29 -109 91c0 72 56 121 103 149c36 21 76 36 117 36z" fill="currentColor"/>
</a>
<rect transform="translate(33.3038, 31.0669)" x="-0.0650" y="-0.3122" width="0.1300" height="2.4984" ry="0.0400" fill="currentColor"/>
<a style="color:inherit;" xlink:href="textedit:///Users/michel/Documents/Kitematic/musite/opt/musite/data/MesseBleue/ly/Abb-Jean-Robin-2002-Messe-de-Angelis.ly:56:16:17">
<text transform="translate(49.8223, 46.7673)" font-family="Century Schoolbook L" font-size="2.4696" text-anchor="start" fill="currentColor">
<tspan>
e</tspan>
</text>
</a>
<a style="color:inherit;" xlink:href="textedit:///Users/michel/Documents/Kitematic/musite/opt/musite/data/MesseBleue/ly/Abb-Jean-Robin-2002-Messe-de-Angelis.ly:51:13:14">
<path transform="translate(49.7788, 40.7673) scale(0.0040, -0.0040)" d="M220 138c56 0 109 -29 109 -91c0 -72 -56 -121 -103 -149c-36 -21 -76 -36 -117 -36c-56 0 -109 29 -109 91c0 72 56 121 103 149c36 21 76 36 117 36z" fill="currentColor"/>
</a>
<a style="color:inherit;" xlink:href="textedit:///Users/michel/Documents/Kitematic/musite/opt/musite/data/MesseBleue/ly/Abb-Jean-Robin-2002-Messe-de-Angelis.ly:44:25:26">
<text transform="translate(49.8223, 36.6832)" font-family="Century Schoolbook L" font-size="2.4696" text-anchor="start" fill="currentColor">
<tspan>
e</tspan>
</text>
</a>
<a style="color:inherit;" xlink:href="textedit:///Users/michel/Documents/Kitematic/musite/opt/musite/data/MesseBleue/ly/Abb-Jean-Robin-2002-Messe-de-Angelis.ly:38:22:23">
<path transform="translate(49.7788, 32.0669) scale(0.0040, -0.0040)" d="M220 138c56 0 109 -29 109 -91c0 -72 -56 -121 -103 -149c-36 -21 -76 -36 -117 -36c-56 0 -109 29 -109 91c0 72 56 121 103 149c36 21 76 36 117 36z" fill="currentColor"/>
</a>
<a style="color:inherit;" xlink:href="textedit:///Users/michel/Documents/Kitematic/musite/opt/musite/data/MesseBleue/ly/Abb-Jean-Robin-2002-Messe-de-Angelis.ly:31:24:25">
<text transform="translate(49.8223, 26.6884)" font-family="Century Schoolbook L" font-size="2.4696" text-anchor="start" fill="currentColor">
<tspan>
e</tspan>
</text>
</a>
<a style="color:inherit;" xlink:href="textedit:///Users/michel/Documents/Kitematic/musite/opt/musite/data/MesseBleue/ly/Abb-Jean-Robin-2002-Messe-de-Angelis.ly:25:21:22">
<path transform="translate(49.7788, 21.6600) scale(0.0040, -0.0040)" d="M220 138c56 0 109 -29 109 -91c0 -72 -56 -121 -103 -149c-36 -21 -76 -36 -117 -36c-56 0 -109 29 -109 91c0 72 56 121 103 149c36 21 76 36 117 36z" fill="currentColor"/>
</a>
<rect transform="translate(45.7643, 41.2673)" x="-0.0650" y="0.1878" width="0.1300" height="2.8122" ry="0.0400" fill="currentColor"/>
<path transform="translate(45.8293, 34.4019) scale(0.0040, -0.0040)" d="M0 0h-16v250h16c98 58 227 148 227 259c0 57 -16 112 -41 163c-3 16 10 27 23 27c7 0 15 -3 20 -11c25 -56 40 -117 40 -179c0 -204 -269 -305 -269 -509z" fill="currentColor"/>
<rect transform="translate(45.7643, 31.0669)" x="-0.0650" y="0.1878" width="0.1300" height="3.1872" ry="0.0400" fill="currentColor"/>
<rect transform="translate(46.9505, 21.6600)" x="-0.0650" y="-2.9944" width="0.1300" height="2.3066" ry="0.0400" fill="currentColor"/>
<a style="color:inherit;" xlink:href="textedit:///Users/michel/Documents/Kitematic/musite/opt/musite/data/MesseBleue/ly/Abb-Jean-Robin-2002-Messe-de-Angelis.ly:56:10:11">
<text transform="translate(45.4185, 46.7673)" font-family="Century Schoolbook L" font-size="2.4696" text-anchor="start" fill="currentColor">
<tspan>
ri</tspan>
</text>
</a>
<a style="color:inherit;" xlink:href="textedit:///Users/michel/Documents/Kitematic/musite/opt/musite/data/MesseBleue/ly/Abb-Jean-Robin-2002-Messe-de-Angelis.ly:51:10:11">
<path transform="translate(45.6993, 41.2673) scale(0.0040, -0.0040)" d="M220 138c56 0 109 -29 109 -91c0 -72 -56 -121 -103 -149c-36 -21 -76 -36 -117 -36c-56 0 -109 29 -109 91c0 72 56 121 103 149c36 21 76 36 117 36z" fill="currentColor"/>
</a>
<a style="color:inherit;" xlink:href="textedit:///Users/michel/Documents/Kitematic/musite/opt/musite/data/MesseBleue/ly/Abb-Jean-Robin-2002-Messe-de-Angelis.ly:44:19:20">
<text transform="translate(45.4185, 36.6832)" font-family="Century Schoolbook L" font-size="2.4696" text-anchor="start" fill="currentColor">
<tspan>
ri</tspan>
</text>
</a>
<a style="color:inherit;" xlink:href="textedit:///Users/michel/Documents/Kitematic/musite/opt/musite/data/MesseBleue/ly/Abb-Jean-Robin-2002-Messe-de-Angelis.ly:38:17:18">
<path transform="translate(45.6993, 31.0669) scale(0.0040, -0.0040)" d="M220 138c56 0 109 -29 109 -91c0 -72 -56 -121 -103 -149c-36 -21 -76 -36 -117 -36c-56 0 -109 29 -109 91c0 72 56 121 103 149c36 21 76 36 117 36z" fill="currentColor"/>
</a>
<a style="color:inherit;" xlink:href="textedit:///Users/michel/Documents/Kitematic/musite/opt/musite/data/MesseBleue/ly/Abb-Jean-Robin-2002-Messe-de-Angelis.ly:31:18:19">
<text transform="translate(45.4185, 26.6884)" font-family="Century Schoolbook L" font-size="2.4696" text-anchor="start" fill="currentColor">
<tspan>
ri</tspan>
</text>
</a>
<a style="color:inherit;" xlink:href="textedit:///Users/michel/Documents/Kitematic/musite/opt/musite/data/MesseBleue/ly/Abb-Jean-Robin-2002-Messe-de-Angelis.ly:25:18:19">
<path transform="translate(45.6993, 21.1600) scale(0.0040, -0.0040)" d="M220 138c56 0 109 -29 109 -91c0 -72 -56 -121 -103 -149c-36 -21 -76 -36 -117 -36c-56 0 -109 29 -109 91c0 72 56 121 103 149c36 21 76 36 117 36z" fill="currentColor"/>
</a>
<rect transform="translate(42.6492, 41.2673)" x="-0.0650" y="0.1878" width="0.1300" height="2.8122" ry="0.0400" fill="currentColor"/>
<rect transform="translate(79.7413, 41.2673)" x="-0.0650" y="-1.3122" width="0.1300" height="3.3122" ry="0.0400" fill="currentColor"/>
<a style="color:inherit;" xlink:href="textedit:///Users/michel/Documents/Kitematic/musite/opt/musite/data/MesseBleue/ly/Abb-Jean-Robin-2002-Messe-de-Angelis.ly:51:37:38">
<path transform="translate(79.6763, 39.7673) scale(0.0040, -0.0040)" d="M220 138c56 0 109 -29 109 -91c0 -72 -56 -121 -103 -149c-36 -21 -76 -36 -117 -36c-56 0 -109 29 -109 91c0 72 56 121 103 149c36 21 76 36 117 36z" fill="currentColor"/>
</a>
<rect transform="translate(76.6262, 41.2673)" x="-0.0650" y="-0.8122" width="0.1300" height="2.8084" ry="0.0400" fill="currentColor"/>
<a style="color:inherit;" xlink:href="textedit:///Users/michel/Documents/Kitematic/musite/opt/musite/data/MesseBleue/ly/Abb-Jean-Robin-2002-Messe-de-Angelis.ly:51:35:36">
<path transform="translate(76.5612, 40.2673) scale(0.0040, -0.0040)" d="M220 138c56 0 109 -29 109 -91c0 -72 -56 -121 -103 -149c-36 -21 -76 -36 -117 -36c-56 0 -109 29 -109 91c0 72 56 121 103 149c36 21 76 36 117 36z" fill="currentColor"/>
</a>
<rect transform="translate(73.5111, 41.2673)" x="-0.0650" y="-1.3122" width="0.1300" height="3.1260" ry="0.0400" fill="currentColor"/>
<a style="color:inherit;" xlink:href="textedit:///Users/michel/Documents/Kitematic/musite/opt/musite/data/MesseBleue/ly/Abb-Jean-Robin-2002-Messe-de-Angelis.ly:56:5:6">
<rect transform="translate(42.0693, 46.7673)" x="0.0000" y="-0.5500" width="0.6600" height="0.1300" ry="0.0400" fill="currentColor"/>
<rect transform="translate(32.0693, 46.7673)" x="0.0000" y="-0.5500" width="0.6600" height="0.1300" ry="0.0400" fill="currentColor"/>
</a>
<polygon transform="translate(30.1237, 33.0669)" stroke-linejoin="round" stroke-linecap="round" stroke-width="0.0800" fill="currentColor" stroke="currentColor" points="3.2051 -0.0100 3.2051 0.3900 0.0400 0.2000 0.0400 -0.2000"/>
<a style="color:inherit;" xlink:href="textedit:///Users/michel/Documents/Kitematic/musite/opt/musite/data/MesseBleue/ly/Abb-Jean-Robin-2002-Messe-de-Angelis.ly:31:21:22">
<rect transform="translate(48.2293, 26.6884)" x="0.0000" y="-0.5500" width="0.6600" height="0.1300" ry="0.0400" fill="currentColor"/>
</a>
<a style="color:inherit;" xlink:href="textedit:///Users/michel/Documents/Kitematic/musite/opt/musite/data/MesseBleue/ly/Abb-Jean-Robin-2002-Messe-de-Angelis.ly:44:22:23">
<rect transform="translate(48.2293, 36.6832)" x="0.0000" y="-0.5500" width="0.6600" height="0.1300" ry="0.0400" fill="currentColor"/>
</a>
<a style="color:inherit;" xlink:href="textedit:///Users/michel/Documents/Kitematic/musite/opt/musite/data/MesseBleue/ly/Abb-Jean-Robin-2002-Messe-de-Angelis.ly:56:13:14">
<rect transform="translate(48.2293, 46.7673)" x="0.0000" y="-0.5500" width="0.6600" height="0.1300" ry="0.0400" fill="currentColor"/>
</a>
<polygon transform="translate(37.5401, 19.4700)" stroke-linejoin="round" stroke-linecap="round" stroke-width="0.0800" fill="currentColor" stroke="currentColor" points="9.4354 -1.0100 9.4354 -0.6100 0.0400 0.2000 0.0400 -0.2000"/>
<polygon transform="translate(42.5842, 44.2673)" stroke-linejoin="round" stroke-linecap="round" stroke-width="0.0800" fill="currentColor" stroke="currentColor" points="3.2051 -0.2000 3.2051 0.2000 0.0400 0.2000 0.0400 -0.2000"/>
<a style="color:inherit;" xlink:href="textedit:///Users/michel/Documents/Kitematic/musite/opt/musite/data/MesseBleue/ly/Abb-Jean-Robin-2002-Messe-de-Angelis.ly:31:29:30">
<rect transform="translate(91.4716, 26.6884)" x="0.0000" y="-0.5500" width="0.6600" height="0.1300" ry="0.0400" fill="currentColor"/>
<rect transform="translate(81.4716, 26.6884)" x="0.0000" y="-0.5500" width="0.6600" height="0.1300" ry="0.0400" fill="currentColor"/>
<rect transform="translate(71.4716, 26.6884)" x="0.0000" y="-0.5500" width="0.6600" height="0.1300" ry="0.0400" fill="currentColor"/>
<rect transform="translate(61.4716, 26.6884)" x="0.0000" y="-0.5500" width="0.6600" height="0.1300" ry="0.0400" fill="currentColor"/>
</a>
<a style="color:inherit;" xlink:href="textedit:///Users/michel/Documents/Kitematic/musite/opt/musite/data/MesseBleue/ly/Abb-Jean-Robin-2002-Messe-de-Angelis.ly:44:30:31">
<rect transform="translate(91.6462, 36.6832)" x="0.0000" y="-0.5500" width="0.6600" height="0.1300" ry="0.0400" fill="currentColor"/>
<rect transform="translate(81.6462, 36.6832)" x="0.0000" y="-0.5500" width="0.6600" height="0.1300" ry="0.0400" fill="currentColor"/>
<rect transform="translate(71.6462, 36.6832)" x="0.0000" y="-0.5500" width="0.6600" height="0.1300" ry="0.0400" fill="currentColor"/>
<rect transform="translate(61.6462, 36.6832)" x="0.0000" y="-0.5500" width="0.6600" height="0.1300" ry="0.0400" fill="currentColor"/>
</a>
<a style="color:inherit;" xlink:href="textedit:///Users/michel/Documents/Kitematic/musite/opt/musite/data/MesseBleue/ly/Abb-Jean-Robin-2002-Messe-de-Angelis.ly:56:20:21">
<rect transform="translate(91.6462, 46.7673)" x="0.0000" y="-0.5500" width="0.6600" height="0.1300" ry="0.0400" fill="currentColor"/>
<rect transform="translate(81.6462, 46.7673)" x="0.0000" y="-0.5500" width="0.6600" height="0.1300" ry="0.0400" fill="currentColor"/>
<rect transform="translate(71.6462, 46.7673)" x="0.0000" y="-0.5500" width="0.6600" height="0.1300" ry="0.0400" fill="currentColor"/>
<rect transform="translate(61.6462, 46.7673)" x="0.0000" y="-0.5500" width="0.6600" height="0.1300" ry="0.0400" fill="currentColor"/>
</a>
<a style="color:inherit;" xlink:href="textedit:///Users/michel/Documents/Kitematic/musite/opt/musite/data/MesseBleue/ly/Abb-Jean-Robin-2002-Messe-de-Angelis.ly:38:31:32">
<path transform="translate(60.1927, 31.0669)" stroke-width="0.0800" stroke-linejoin="round" stroke-linecap="round" stroke="currentColor" fill="currentColor" d="M0.625079816123787 -1.550006C2.56864240022869 -3.29526810518859 11.6949991685693 -3.98387535442613 13.8784354530937 -2.550006C11.704027815299 -3.8642154883965 2.57767104695842 -3.17560823915896 0.625079816123787 -1.550006z"/>
</a>
<a style="color:inherit;" xlink:href="textedit:///Users/michel/Documents/Kitematic/musite/opt/musite/data/MesseBleue/ly/Abb-Jean-Robin-2002-Messe-de-Angelis.ly:26:6:7">
<path transform="translate(80.7650, 22.6600) scale(0.0040, -0.0040)" d="M220 138c56 0 109 -29 109 -91c0 -72 -56 -121 -103 -149c-36 -21 -76 -36 -117 -36c-56 0 -109 29 -109 91c0 72 56 121 103 149c36 21 76 36 117 36z" fill="currentColor"/>
</a>
<a style="color:inherit;" xlink:href="textedit:///Users/michel/Documents/Kitematic/musite/opt/musite/data/MesseBleue/ly/Abb-Jean-Robin-2002-Messe-de-Angelis.ly:39:2:3">
<path transform="translate(80.7650, 31.0669) scale(0.0040, -0.0040)" d="M220 138c56 0 109 -29 109 -91c0 -72 -56 -121 -103 -149c-36 -21 -76 -36 -117 -36c-56 0 -109 29 -109 91c0 72 56 121 103 149c36 21 76 36 117 36z" fill="currentColor"/>
</a>
<polygon transform="translate(103.5731, 39.2673)" stroke-linejoin="round" stroke-linecap="round" stroke-width="0.0800" fill="currentColor" stroke="currentColor" points="3.2051 -0.2000 3.2051 0.2000 0.0400 0.2000 0.0400 -0.2000"/>
<polygon transform="translate(102.3869, 33.0669)" stroke-linejoin="round" stroke-linecap="round" stroke-width="0.0800" fill="currentColor" stroke="currentColor" points="3.2051 -0.0100 3.2051 0.3900 0.0400 0.2000 0.0400 -0.2000"/>
<a style="color:inherit;" xlink:href="textedit:///Users/michel/Documents/Kitematic/musite/opt/musite/data/MesseBleue/ly/Abb-Jean-Robin-2002-Messe-de-Angelis.ly:56:58:59">
<rect transform="translate(106.7139, 46.7673)" x="0.0000" y="-0.5500" width="0.6600" height="0.1300" ry="0.0400" fill="currentColor"/>
</a>
<a style="color:inherit;" xlink:href="textedit:///Users/michel/Documents/Kitematic/musite/opt/musite/data/MesseBleue/ly/Abb-Jean-Robin-2002-Messe-de-Angelis.ly:44:55:56">
<rect transform="translate(106.7139, 36.6832)" x="0.0000" y="-0.5500" width="0.6600" height="0.1300" ry="0.0400" fill="currentColor"/>
</a>
<a style="color:inherit;" xlink:href="textedit:///Users/michel/Documents/Kitematic/musite/opt/musite/data/MesseBleue/ly/Abb-Jean-Robin-2002-Messe-de-Angelis.ly:31:60:61">
<rect transform="translate(106.7139, 26.6884)" x="0.0000" y="-0.5500" width="0.6600" height="0.1300" ry="0.0400" fill="currentColor"/>
</a>
<a style="color:inherit;" xlink:href="textedit:///Users/michel/Documents/Kitematic/musite/opt/musite/data/MesseBleue/ly/Abb-Jean-Robin-2002-Messe-de-Angelis.ly:56:51:52">
<rect transform="translate(102.9414, 46.7673)" x="0.0000" y="-0.5500" width="0.6600" height="0.1300" ry="0.0400" fill="currentColor"/>
</a>
<polygon transform="translate(93.4915, 42.4316)" stroke-linejoin="round" stroke-linecap="round" stroke-width="0.0800" fill="currentColor" stroke="currentColor" points="2.3330 -0.3643 2.3330 0.0357 0.0400 0.2000 0.0400 -0.2000"/>
<polygon transform="translate(90.3763, 43.4573)" stroke-linejoin="round" stroke-linecap="round" stroke-width="0.0800" fill="currentColor" stroke="currentColor" points="5.4481 -0.5800 5.4481 -0.1800 0.0400 0.2000 0.0400 -0.2000"/>
<a style="color:inherit;" xlink:href="textedit:///Users/michel/Documents/Kitematic/musite/opt/musite/data/MesseBleue/ly/Abb-Jean-Robin-2002-Messe-de-Angelis.ly:31:55:56">
<rect transform="translate(102.7668, 26.6884)" x="0.0000" y="-0.5500" width="0.6600" height="0.1300" ry="0.0400" fill="currentColor"/>
</a>
<polygon transform="translate(85.2072, 19.6600)" stroke-linejoin="round" stroke-linecap="round" stroke-width="0.0800" fill="currentColor" stroke="currentColor" points="9.5604 -0.2000 9.5604 0.2000 0.0400 0.2000 0.0400 -0.2000"/>
<polygon transform="translate(84.0211, 42.2673)" stroke-linejoin="round" stroke-linecap="round" stroke-width="0.0800" fill="currentColor" stroke="currentColor" points="3.2051 -0.0100 3.2051 0.3900 0.0400 0.2000 0.0400 -0.2000"/>
<polygon transform="translate(73.4461, 43.0773)" stroke-linejoin="round" stroke-linecap="round" stroke-width="0.0800" fill="currentColor" stroke="currentColor" points="3.2051 -0.0100 3.2051 0.3900 0.0400 0.2000 0.0400 -0.2000"/>
<polygon transform="translate(68.9478, 18.6600)" stroke-linejoin="round" stroke-linecap="round" stroke-width="0.0800" fill="currentColor" stroke="currentColor" points="2.3330 -0.0100 2.3330 0.3900 0.0400 0.2000 0.0400 -0.2000"/>
<polygon transform="translate(68.9478, 19.4700)" stroke-linejoin="round" stroke-linecap="round" stroke-width="0.0800" fill="currentColor" stroke="currentColor" points="2.3330 -0.0100 2.3330 0.3900 0.0400 0.2000 0.0400 -0.2000"/>
<polygon transform="translate(60.1927, 44.0773)" stroke-linejoin="round" stroke-linecap="round" stroke-width="0.0800" fill="currentColor" stroke="currentColor" points="3.3301 -0.0100 3.3301 0.3900 0.0400 0.2000 0.0400 -0.2000"/>
<polygon transform="translate(60.1927, 33.8769)" stroke-linejoin="round" stroke-linecap="round" stroke-width="0.0800" fill="currentColor" stroke="currentColor" points="3.3301 -0.8200 3.3301 -0.4200 0.0400 0.2000 0.0400 -0.2000"/>
<polygon transform="translate(53.9625, 43.0773)" stroke-linejoin="round" stroke-linecap="round" stroke-width="0.0800" fill="currentColor" stroke="currentColor" points="3.2051 -0.0100 3.2051 0.3900 0.0400 0.2000 0.0400 -0.2000"/>
<rect transform="translate(66.7380, 31.0669)" x="-0.0650" y="-1.3122" width="0.1300" height="3.3122" ry="0.0400" fill="currentColor"/>
<a style="color:inherit;" xlink:href="textedit:///Users/michel/Documents/Kitematic/musite/opt/musite/data/MesseBleue/ly/Abb-Jean-Robin-2002-Messe-de-Angelis.ly:51:27:28">
<path transform="translate(66.6730, 39.2673) scale(0.0040, -0.0040)" d="M220 138c56 0 109 -29 109 -91c0 -72 -56 -121 -103 -149c-36 -21 -76 -36 -117 -36c-56 0 -109 29 -109 91c0 72 56 121 103 149c36 21 76 36 117 36z" fill="currentColor"/>
</a>
<a style="color:inherit;" xlink:href="textedit:///Users/michel/Documents/Kitematic/musite/opt/musite/data/MesseBleue/ly/Abb-Jean-Robin-2002-Messe-de-Angelis.ly:38:35:36">
<path transform="translate(66.6730, 29.5669) scale(0.0040, -0.0040)" d="M220 138c56 0 109 -29 109 -91c0 -72 -56 -121 -103 -149c-36 -21 -76 -36 -117 -36c-56 0 -109 29 -109 91c0 72 56 121 103 149c36 21 76 36 117 36z" fill="currentColor"/>
</a>
<rect transform="translate(63.4979, 41.2673)" x="-0.0650" y="0.1878" width="0.1300" height="2.8085" ry="0.0400" fill="currentColor"/>
<rect transform="translate(63.4979, 31.0669)" x="-0.0650" y="-1.3122" width="0.1300" height="3.5141" ry="0.0400" fill="currentColor"/>
<a style="color:inherit;" xlink:href="textedit:///Users/michel/Documents/Kitematic/musite/opt/musite/data/MesseBleue/ly/Abb-Jean-Robin-2002-Messe-de-Angelis.ly:51:25:26">
<path transform="translate(63.4329, 41.2673) scale(0.0040, -0.0040)" d="M220 138c56 0 109 -29 109 -91c0 -72 -56 -121 -103 -149c-36 -21 -76 -36 -117 -36c-56 0 -109 29 -109 91c0 72 56 121 103 149c36 21 76 36 117 36z" fill="currentColor"/>
</a>
<a style="color:inherit;" xlink:href="textedit:///Users/michel/Documents/Kitematic/musite/opt/musite/data/MesseBleue/ly/Abb-Jean-Robin-2002-Messe-de-Angelis.ly:38:32:33">
<path transform="translate(63.4329, 29.5669) scale(0.0040, -0.0040)" d="M220 138c56 0 109 -29 109 -91c0 -72 -56 -121 -103 -149c-36 -21 -76 -36 -117 -36c-56 0 -109 29 -109 91c0 72 56 121 103 149c36 21 76 36 117 36z" fill="currentColor"/>
</a>
<rect transform="translate(60.2577, 41.2673)" x="-0.0650" y="-0.3122" width="0.1300" height="3.1259" ry="0.0400" fill="currentColor"/>
<rect transform="translate(60.2577, 31.0669)" x="-0.0650" y="-0.3122" width="0.1300" height="3.1102" ry="0.0400" fill="currentColor"/>
<path transform="translate(61.9589, 21.1600) scale(0.0040, -0.0040)" d="M0 0c0 31 25 56 56 56s56 -25 56 -56s-25 -56 -56 -56s-56 25 -56 56z" fill="currentColor"/>
<rect transform="translate(73.5111, 31.0669)" x="-0.0650" y="-1.3122" width="0.1300" height="3.3122" ry="0.0400" fill="currentColor"/>
<path transform="translate(75.2123, 29.5669) scale(0.0040, -0.0040)" d="M0 0c0 31 25 56 56 56s56 -25 56 -56s-25 -56 -56 -56s-56 25 -56 56z" fill="currentColor"/>
<rect transform="translate(73.5111, 21.6600)" x="-0.0650" y="0.1878" width="0.1300" height="3.1455" ry="0.0400" fill="currentColor"/>
<path transform="translate(75.2123, 21.1600) scale(0.0040, -0.0040)" d="M0 0c0 31 25 56 56 56s56 -25 56 -56s-25 -56 -56 -56s-56 25 -56 56z" fill="currentColor"/>
<a style="color:inherit;" xlink:href="textedit:///Users/michel/Documents/Kitematic/musite/opt/musite/data/MesseBleue/ly/Abb-Jean-Robin-2002-Messe-de-Angelis.ly:51:33:34">
<path transform="translate(73.4461, 39.7673) scale(0.0040, -0.0040)" d="M220 138c56 0 109 -29 109 -91c0 -72 -56 -121 -103 -149c-36 -21 -76 -36 -117 -36c-56 0 -109 29 -109 91c0 72 56 121 103 149c36 21 76 36 117 36z" fill="currentColor"/>
</a>
<a style="color:inherit;" xlink:href="textedit:///Users/michel/Documents/Kitematic/musite/opt/musite/data/MesseBleue/ly/Abb-Jean-Robin-2002-Messe-de-Angelis.ly:38:39:40">
<path transform="translate(73.4461, 29.5669) scale(0.0040, -0.0040)" d="M220 138c56 0 109 -29 109 -91c0 -72 -56 -121 -103 -149c-36 -21 -76 -36 -117 -36c-56 0 -109 29 -109 91c0 72 56 121 103 149c36 21 76 36 117 36z" fill="currentColor"/>
</a>
<a style="color:inherit;" xlink:href="textedit:///Users/michel/Documents/Kitematic/musite/opt/musite/data/MesseBleue/ly/Abb-Jean-Robin-2002-Messe-de-Angelis.ly:26:0:1">
<path transform="translate(73.4461, 21.6600) scale(0.0040, -0.0040)" d="M220 138c56 0 109 -29 109 -91c0 -72 -56 -121 -103 -149c-36 -21 -76 -36 -117 -36c-56 0 -109 29 -109 91c0 72 56 121 103 149c36 21 76 36 117 36z" fill="currentColor"/>
</a>
<rect transform="translate(66.7380, 41.2673)" x="-0.0650" y="-1.8122" width="0.1300" height="3.3122" ry="0.0400" fill="currentColor"/>
<a style="color:inherit;" xlink:href="textedit:///Users/michel/Documents/Kitematic/musite/opt/musite/data/MesseBleue/ly/Abb-Jean-Robin-2002-Messe-de-Angelis.ly:25:33:34">
<path transform="translate(67.7616, 21.6600) scale(0.0040, -0.0040)" d="M220 138c56 0 109 -29 109 -91c0 -72 -56 -121 -103 -149c-36 -21 -76 -36 -117 -36c-56 0 -109 29 -109 91c0 72 56 121 103 149c36 21 76 36 117 36z" fill="currentColor"/>
</a>
<rect transform="translate(69.0128, 21.6600)" x="-0.0650" y="-2.9948" width="0.1300" height="2.8070" ry="0.0400" fill="currentColor"/>
<a style="color:inherit;" xlink:href="textedit:///Users/michel/Documents/Kitematic/musite/opt/musite/data/MesseBleue/ly/Abb-Jean-Robin-2002-Messe-de-Angelis.ly:25:39:40">
<path transform="translate(70.0046, 22.1600) scale(0.0040, -0.0040)" d="M220 138c56 0 109 -29 109 -91c0 -72 -56 -121 -103 -149c-36 -21 -76 -36 -117 -36c-56 0 -109 29 -109 91c0 72 56 121 103 149c36 21 76 36 117 36z" fill="currentColor"/>
</a>
<rect transform="translate(71.2557, 21.6600)" x="-0.0650" y="-2.8152" width="0.1300" height="3.1274" ry="0.0400" fill="currentColor"/>
<rect transform="translate(91.6275, 21.6600)" x="-0.0650" y="-2.0000" width="0.1300" height="2.3122" ry="0.0400" fill="currentColor"/>
<a style="color:inherit;" xlink:href="textedit:///Users/michel/Documents/Kitematic/musite/opt/musite/data/MesseBleue/ly/Abb-Jean-Robin-2002-Messe-de-Angelis.ly:51:47:48">
<path transform="translate(90.3763, 40.2673) scale(0.0040, -0.0040)" d="M220 138c56 0 109 -29 109 -91c0 -72 -56 -121 -103 -149c-36 -21 -76 -36 -117 -36c-56 0 -109 29 -109 91c0 72 56 121 103 149c36 21 76 36 117 36z" fill="currentColor"/>
</a>
<a style="color:inherit;" xlink:href="textedit:///Users/michel/Documents/Kitematic/musite/opt/musite/data/MesseBleue/ly/Abb-Jean-Robin-2002-Messe-de-Angelis.ly:26:14:15">
<path transform="translate(90.3763, 22.1600) scale(0.0040, -0.0040)" d="M220 138c56 0 109 -29 109 -91c0 -72 -56 -121 -103 -149c-36 -21 -76 -36 -117 -36c-56 0 -109 29 -109 91c0 72 56 121 103 149c36 21 76 36 117 36z" fill="currentColor"/>
</a>
<rect transform="translate(87.2012, 41.2673)" x="-0.0650" y="-1.3122" width="0.1300" height="2.4984" ry="0.0400" fill="currentColor"/>
<rect transform="translate(88.3874, 21.6600)" x="-0.0650" y="-2.0000" width="0.1300" height="3.8122" ry="0.0400" fill="currentColor"/>
<a style="color:inherit;" xlink:href="textedit:///Users/michel/Documents/Kitematic/musite/opt/musite/data/MesseBleue/ly/Abb-Jean-Robin-2002-Messe-de-Angelis.ly:51:45:46">
<path transform="translate(87.1362, 39.7673) scale(0.0040, -0.0040)" d="M220 138c56 0 109 -29 109 -91c0 -72 -56 -121 -103 -149c-36 -21 -76 -36 -117 -36c-56 0 -109 29 -109 91c0 72 56 121 103 149c36 21 76 36 117 36z" fill="currentColor"/>
</a>
<a style="color:inherit;" xlink:href="textedit:///Users/michel/Documents/Kitematic/musite/opt/musite/data/MesseBleue/ly/Abb-Jean-Robin-2002-Messe-de-Angelis.ly:26:11:12">
<path transform="translate(87.1362, 23.6600) scale(0.0040, -0.0040)" d="M220 138c56 0 109 -29 109 -91c0 -72 -56 -121 -103 -149c-36 -21 -76 -36 -117 -36c-56 0 -109 29 -109 91c0 72 56 121 103 149c36 21 76 36 117 36z" fill="currentColor"/>
</a>
<rect transform="translate(84.0861, 41.2673)" x="-0.0650" y="-1.8122" width="0.1300" height="2.8160" ry="0.0400" fill="currentColor"/>
<rect transform="translate(84.0861, 31.0669)" x="-0.0650" y="-0.3122" width="0.1300" height="3.3122" ry="0.0400" fill="currentColor"/>
<path transform="translate(85.7872, 30.5669) scale(0.0040, -0.0040)" d="M0 0c0 31 25 56 56 56s56 -25 56 -56s-25 -56 -56 -56s-56 25 -56 56z" fill="currentColor"/>
<rect transform="translate(85.2722, 21.6600)" x="-0.0650" y="-2.0000" width="0.1300" height="3.3122" ry="0.0400" fill="currentColor"/>
<rect transform="translate(95.7994, 41.2673)" x="-0.0650" y="-1.8122" width="0.1300" height="3.6267" ry="0.0400" fill="currentColor"/>
<a style="color:inherit;" xlink:href="textedit:///Users/michel/Documents/Kitematic/musite/opt/musite/data/MesseBleue/ly/Abb-Jean-Robin-2002-Messe-de-Angelis.ly:51:53:54">
<path transform="translate(95.7344, 39.2673) scale(0.0040, -0.0040)" d="M220 138c56 0 109 -29 109 -91c0 -72 -56 -121 -103 -149c-36 -21 -76 -36 -117 -36c-56 0 -109 29 -109 91c0 72 56 121 103 149c36 21 76 36 117 36z" fill="currentColor"/>
</a>
<rect transform="translate(93.5565, 41.2673)" x="-0.0650" y="-1.3122" width="0.1300" height="3.2820" ry="0.0400" fill="currentColor"/>
<path transform="translate(93.6215, 33.0269) scale(0.0040, -0.0040)" d="M0 0h-16v250h16c98 58 227 148 227 259c0 57 -16 112 -41 163c-3 16 10 27 23 27c7 0 15 -3 20 -11c25 -56 40 -117 40 -179c0 -204 -269 -305 -269 -509z" fill="currentColor"/>
<rect transform="translate(93.5565, 31.0669)" x="-0.0650" y="-1.3122" width="0.1300" height="3.3122" ry="0.0400" fill="currentColor"/>
<rect transform="translate(94.7426, 21.6600)" x="-0.0650" y="-2.0000" width="0.1300" height="2.8122" ry="0.0400" fill="currentColor"/>
<a style="color:inherit;" xlink:href="textedit:///Users/michel/Documents/Kitematic/musite/opt/musite/data/MesseBleue/ly/Abb-Jean-Robin-2002-Messe-de-Angelis.ly:51:49:50">
<path transform="translate(93.4915, 39.7673) scale(0.0040, -0.0040)" d="M220 138c56 0 109 -29 109 -91c0 -72 -56 -121 -103 -149c-36 -21 -76 -36 -117 -36c-56 0 -109 29 -109 91c0 72 56 121 103 149c36 21 76 36 117 36z" fill="currentColor"/>
</a>
<a style="color:inherit;" xlink:href="textedit:///Users/michel/Documents/Kitematic/musite/opt/musite/data/MesseBleue/ly/Abb-Jean-Robin-2002-Messe-de-Angelis.ly:39:11:12">
<path transform="translate(93.4915, 29.5669) scale(0.0040, -0.0040)" d="M220 138c56 0 109 -29 109 -91c0 -72 -56 -121 -103 -149c-36 -21 -76 -36 -117 -36c-56 0 -109 29 -109 91c0 72 56 121 103 149c36 21 76 36 117 36z" fill="currentColor"/>
</a>
<a style="color:inherit;" xlink:href="textedit:///Users/michel/Documents/Kitematic/musite/opt/musite/data/MesseBleue/ly/Abb-Jean-Robin-2002-Messe-de-Angelis.ly:26:17:18">
<path transform="translate(93.4915, 22.6600) scale(0.0040, -0.0040)" d="M220 138c56 0 109 -29 109 -91c0 -72 -56 -121 -103 -149c-36 -21 -76 -36 -117 -36c-56 0 -109 29 -109 91c0 72 56 121 103 149c36 21 76 36 117 36z" fill="currentColor"/>
</a>
<rect transform="translate(90.4413, 41.2673)" x="-0.0650" y="-0.8122" width="0.1300" height="2.9977" ry="0.0400" fill="currentColor"/>
<rect transform="translate(27.4614, 21.6600)" x="-0.0650" y="-1.5000" width="0.1300" height="3.2386" ry="0.0400" fill="currentColor"/>
<a style="color:inherit;" xlink:href="textedit:///Users/michel/Documents/Kitematic/musite/opt/musite/data/MesseBleue/ly/Abb-Jean-Robin-2002-Messe-de-Angelis.ly:56:2:3">
<text transform="translate(26.1364, 46.7673)" font-family="Century Schoolbook L" font-size="2.4696" text-anchor="start" fill="currentColor">
<tspan>
Ky</tspan>
</text>
</a>
<path transform="translate(22.4364, 41.2673) scale(0.0040, -0.0040)" d="M359 27c-49 0 -75 42 -75 75c0 38 27 77 72 77c4 0 9 0 14 -1c-28 37 -72 59 -120 59c-106 0 -113 -73 -113 -186v-51v-51c0 -113 7 -187 113 -187c80 0 139 70 158 151c2 7 7 10 12 10c6 0 13 -4 13 -12c0 -94 -105 -174 -183 -174c-68 0 -137 21 -184 70
c-49 51 -66 122 -66 193s17 142 66 193c47 49 116 69 184 69c87 0 160 -64 175 -150c1 -5 1 -9 1 -13c0 -40 -30 -72 -67 -72z" fill="currentColor"/>
<a style="color:inherit;" xlink:href="textedit:///Users/michel/Documents/Kitematic/musite/opt/musite/data/MesseBleue/ly/Abb-Jean-Robin-2002-Messe-de-Angelis.ly:14:2:3">
<path transform="translate(18.6464, 42.2673) scale(0.0040, -0.0040)" d="M27 41l-1 -66v-11c0 -22 1 -44 4 -66c45 38 93 80 93 139c0 33 -14 67 -43 67c-31 0 -52 -30 -53 -63zM-15 -138l-12 595c8 5 18 8 27 8s19 -3 27 -8l-7 -345c25 21 58 34 91 34c52 0 89 -48 89 -102c0 -80 -86 -117 -147 -169c-15 -13 -24 -38 -45 -38
c-13 0 -23 11 -23 25z" fill="currentColor"/>
<path transform="translate(19.5664, 40.7673) scale(0.0040, -0.0040)" d="M27 41l-1 -66v-11c0 -22 1 -44 4 -66c45 38 93 80 93 139c0 33 -14 67 -43 67c-31 0 -52 -30 -53 -63zM-15 -138l-12 595c8 5 18 8 27 8s19 -3 27 -8l-7 -345c25 21 58 34 91 34c52 0 89 -48 89 -102c0 -80 -86 -117 -147 -169c-15 -13 -24 -38 -45 -38
c-13 0 -23 11 -23 25z" fill="currentColor"/>
<path transform="translate(20.4864, 42.7673) scale(0.0040, -0.0040)" d="M27 41l-1 -66v-11c0 -22 1 -44 4 -66c45 38 93 80 93 139c0 33 -14 67 -43 67c-31 0 -52 -30 -53 -63zM-15 -138l-12 595c8 5 18 8 27 8s19 -3 27 -8l-7 -345c25 21 58 34 91 34c52 0 89 -48 89 -102c0 -80 -86 -117 -147 -169c-15 -13 -24 -38 -45 -38
c-13 0 -23 11 -23 25z" fill="currentColor"/>
</a>
<path transform="translate(15.0264, 40.2673) scale(0.0040, -0.0040)" d="M557 -125c0 28 23 51 51 51s51 -23 51 -51s-23 -51 -51 -51s-51 23 -51 51zM557 125c0 28 23 51 51 51s51 -23 51 -51s-23 -51 -51 -51s-51 23 -51 51zM232 263c172 0 293 -88 293 -251c0 -263 -263 -414 -516 -521c-3 -3 -6 -4 -9 -4c-7 0 -13 6 -13 13c0 3 1 6 4 9
c202 118 412 265 412 493c0 120 -63 235 -171 235c-74 0 -129 -54 -154 -126c11 5 22 8 34 8c55 0 100 -45 100 -100c0 -58 -44 -106 -100 -106c-60 0 -112 47 -112 106c0 133 102 244 232 244z" fill="currentColor"/>
<a style="color:inherit;" xlink:href="textedit:///Users/michel/Documents/Kitematic/musite/opt/musite/data/MesseBleue/ly/Abb-Jean-Robin-2002-Messe-de-Angelis.ly:51:2:3">
<path transform="translate(26.1364, 40.7673) scale(0.0040, -0.0040)" d="M315 65c0 24 -21 41 -42 41c-4 0 -8 0 -12 -1c-31 -9 -77 -40 -114 -64s-84 -53 -104 -78c-7 -8 -11 -18 -11 -28c0 -24 21 -41 42 -41c4 0 8 0 12 1c31 9 78 40 115 64s84 53 104 78c7 8 10 18 10 28zM264 137c47 0 83 -21 83 -72c0 -19 -4 -37 -10 -56
c-12 -38 -32 -74 -65 -96c-54 -36 -113 -51 -188 -51c-47 0 -84 22 -84 73c0 19 5 37 11 56c12 38 31 74 64 96c54 36 114 50 189 50z" fill="currentColor"/>
</a>
<a style="color:inherit;" xlink:href="textedit:///Users/michel/Documents/Kitematic/musite/opt/musite/data/MesseBleue/ly/Abb-Jean-Robin-2002-Messe-de-Angelis.ly:44:3:4">
<text transform="translate(25.1727, 36.6832)" font-family="Century Schoolbook L" font-size="2.4696" text-anchor="start" fill="currentColor">
<tspan>
Ky</tspan>
</text>
</a>
<path transform="translate(22.4364, 31.0669) scale(0.0040, -0.0040)" d="M359 27c-49 0 -75 42 -75 75c0 38 27 77 72 77c4 0 9 0 14 -1c-28 37 -72 59 -120 59c-106 0 -113 -73 -113 -186v-51v-51c0 -113 7 -187 113 -187c80 0 139 70 158 151c2 7 7 10 12 10c6 0 13 -4 13 -12c0 -94 -105 -174 -183 -174c-68 0 -137 21 -184 70
c-49 51 -66 122 -66 193s17 142 66 193c47 49 116 69 184 69c87 0 160 -64 175 -150c1 -5 1 -9 1 -13c0 -40 -30 -72 -67 -72z" fill="currentColor"/>
<a style="color:inherit;" xlink:href="textedit:///Users/michel/Documents/Kitematic/musite/opt/musite/data/MesseBleue/ly/Abb-Jean-Robin-2002-Messe-de-Angelis.ly:14:2:3">
<path transform="translate(18.6464, 31.0669) scale(0.0040, -0.0040)" d="M27 41l-1 -66v-11c0 -22 1 -44 4 -66c45 38 93 80 93 139c0 33 -14 67 -43 67c-31 0 -52 -30 -53 -63zM-15 -138l-12 595c8 5 18 8 27 8s19 -3 27 -8l-7 -345c25 21 58 34 91 34c52 0 89 -48 89 -102c0 -80 -86 -117 -147 -169c-15 -13 -24 -38 -45 -38
c-13 0 -23 11 -23 25z" fill="currentColor"/>
<path transform="translate(19.5664, 29.5669) scale(0.0040, -0.0040)" d="M27 41l-1 -66v-11c0 -22 1 -44 4 -66c45 38 93 80 93 139c0 33 -14 67 -43 67c-31 0 -52 -30 -53 -63zM-15 -138l-12 595c8 5 18 8 27 8s19 -3 27 -8l-7 -345c25 21 58 34 91 34c52 0 89 -48 89 -102c0 -80 -86 -117 -147 -169c-15 -13 -24 -38 -45 -38
c-13 0 -23 11 -23 25z" fill="currentColor"/>
<path transform="translate(20.4864, 31.5669) scale(0.0040, -0.0040)" d="M27 41l-1 -66v-11c0 -22 1 -44 4 -66c45 38 93 80 93 139c0 33 -14 67 -43 67c-31 0 -52 -30 -53 -63zM-15 -138l-12 595c8 5 18 8 27 8s19 -3 27 -8l-7 -345c25 21 58 34 91 34c52 0 89 -48 89 -102c0 -80 -86 -117 -147 -169c-15 -13 -24 -38 -45 -38
c-13 0 -23 11 -23 25z" fill="currentColor"/>
</a>
<text transform="translate(15.9162, 35.5970)" font-family="Century Schoolbook L" font-style="italic" font-size="1.3860" text-anchor="start" fill="currentColor">
<tspan>
8</tspan>
</text>
<path transform="translate(15.0264, 32.0669) scale(0.0040, -0.0040)" d="M376 262c4 0 9 1 13 1c155 0 256 -128 256 -261c0 -76 -33 -154 -107 -210c-22 -17 -47 -28 -73 -36c3 -35 5 -70 5 -105c0 -19 -1 -39 -2 -58c-7 -120 -90 -228 -208 -228c-108 0 -195 88 -195 197c0 58 53 103 112 103c54 0 95 -47 95 -103c0 -52 -43 -95 -95 -95
c-11 0 -21 2 -31 6c26 -39 68 -65 117 -65c96 0 157 92 163 191c1 18 2 37 2 55c0 31 -1 61 -4 92c-29 -5 -58 -8 -89 -8c-188 0 -333 172 -333 374c0 177 131 306 248 441c-19 62 -37 125 -45 190c-6 52 -7 104 -7 156c0 115 55 224 149 292c3 2 7 3 10 3c4 0 7 0 10 -3
c71 -84 133 -245 133 -358c0 -143 -86 -255 -180 -364c21 -68 39 -138 56 -207zM461 -203c68 24 113 95 113 164c0 90 -66 179 -173 190c24 -116 46 -231 60 -354zM74 28c0 -135 129 -247 264 -247c28 0 55 2 82 6c-14 127 -37 245 -63 364c-79 -8 -124 -61 -124 -119
c0 -44 25 -91 81 -123c5 -5 7 -10 7 -15c0 -11 -10 -22 -22 -22c-3 0 -6 1 -9 2c-80 43 -117 115 -117 185c0 88 58 174 160 197c-14 58 -29 117 -46 175c-107 -121 -213 -243 -213 -403zM408 1045c-99 -48 -162 -149 -162 -259c0 -74 18 -133 36 -194
c80 97 146 198 146 324c0 55 -4 79 -20 129z" fill="currentColor"/>
<a style="color:inherit;" xlink:href="textedit:///Users/michel/Documents/Kitematic/musite/opt/musite/data/MesseBleue/ly/Abb-Jean-Robin-2002-Messe-de-Angelis.ly:38:2:3">
<path transform="translate(26.1364, 29.5669) scale(0.0040, -0.0040)" d="M220 138c56 0 109 -29 109 -91c0 -72 -56 -121 -103 -149c-36 -21 -76 -36 -117 -36c-56 0 -109 29 -109 91c0 72 56 121 103 149c36 21 76 36 117 36z" fill="currentColor"/>
</a>
<a style="color:inherit;" xlink:href="textedit:///Users/michel/Documents/Kitematic/musite/opt/musite/data/MesseBleue/ly/Abb-Jean-Robin-2002-Messe-de-Angelis.ly:31:2:3">
<text transform="translate(25.2096, 26.6884)" font-family="Century Schoolbook L" font-size="2.4696" text-anchor="start" fill="currentColor">
<tspan>
Ky</tspan>
</text>
</a>
<path transform="translate(22.4364, 21.6600) scale(0.0040, -0.0040)" d="M359 27c-49 0 -75 42 -75 75c0 38 27 77 72 77c4 0 9 0 14 -1c-28 37 -72 59 -120 59c-106 0 -113 -73 -113 -186v-51v-51c0 -113 7 -187 113 -187c80 0 139 70 158 151c2 7 7 10 12 10c6 0 13 -4 13 -12c0 -94 -105 -174 -183 -174c-68 0 -137 21 -184 70
c-49 51 -66 122 -66 193s17 142 66 193c47 49 116 69 184 69c87 0 160 -64 175 -150c1 -5 1 -9 1 -13c0 -40 -30 -72 -67 -72z" fill="currentColor"/>
<a style="color:inherit;" xlink:href="textedit:///Users/michel/Documents/Kitematic/musite/opt/musite/data/MesseBleue/ly/Abb-Jean-Robin-2002-Messe-de-Angelis.ly:14:2:3">
<path transform="translate(18.6464, 21.6600) scale(0.0040, -0.0040)" d="M27 41l-1 -66v-11c0 -22 1 -44 4 -66c45 38 93 80 93 139c0 33 -14 67 -43 67c-31 0 -52 -30 -53 -63zM-15 -138l-12 595c8 5 18 8 27 8s19 -3 27 -8l-7 -345c25 21 58 34 91 34c52 0 89 -48 89 -102c0 -80 -86 -117 -147 -169c-15 -13 -24 -38 -45 -38
c-13 0 -23 11 -23 25z" fill="currentColor"/>
<path transform="translate(19.5664, 20.1600) scale(0.0040, -0.0040)" d="M27 41l-1 -66v-11c0 -22 1 -44 4 -66c45 38 93 80 93 139c0 33 -14 67 -43 67c-31 0 -52 -30 -53 -63zM-15 -138l-12 595c8 5 18 8 27 8s19 -3 27 -8l-7 -345c25 21 58 34 91 34c52 0 89 -48 89 -102c0 -80 -86 -117 -147 -169c-15 -13 -24 -38 -45 -38
c-13 0 -23 11 -23 25z" fill="currentColor"/>
<path transform="translate(20.4864, 22.1600) scale(0.0040, -0.0040)" d="M27 41l-1 -66v-11c0 -22 1 -44 4 -66c45 38 93 80 93 139c0 33 -14 67 -43 67c-31 0 -52 -30 -53 -63zM-15 -138l-12 595c8 5 18 8 27 8s19 -3 27 -8l-7 -345c25 21 58 34 91 34c52 0 89 -48 89 -102c0 -80 -86 -117 -147 -169c-15 -13 -24 -38 -45 -38
c-13 0 -23 11 -23 25z" fill="currentColor"/>
</a>
<path transform="translate(15.0264, 22.6600) scale(0.0040, -0.0040)" d="M376 262c4 0 9 1 13 1c155 0 256 -128 256 -261c0 -76 -33 -154 -107 -210c-22 -17 -47 -28 -73 -36c3 -35 5 -70 5 -105c0 -19 -1 -39 -2 -58c-7 -120 -90 -228 -208 -228c-108 0 -195 88 -195 197c0 58 53 103 112 103c54 0 95 -47 95 -103c0 -52 -43 -95 -95 -95
c-11 0 -21 2 -31 6c26 -39 68 -65 117 -65c96 0 157 92 163 191c1 18 2 37 2 55c0 31 -1 61 -4 92c-29 -5 -58 -8 -89 -8c-188 0 -333 172 -333 374c0 177 131 306 248 441c-19 62 -37 125 -45 190c-6 52 -7 104 -7 156c0 115 55 224 149 292c3 2 7 3 10 3c4 0 7 0 10 -3
c71 -84 133 -245 133 -358c0 -143 -86 -255 -180 -364c21 -68 39 -138 56 -207zM461 -203c68 24 113 95 113 164c0 90 -66 179 -173 190c24 -116 46 -231 60 -354zM74 28c0 -135 129 -247 264 -247c28 0 55 2 82 6c-14 127 -37 245 -63 364c-79 -8 -124 -61 -124 -119
c0 -44 25 -91 81 -123c5 -5 7 -10 7 -15c0 -11 -10 -22 -22 -22c-3 0 -6 1 -9 2c-80 43 -117 115 -117 185c0 88 58 174 160 197c-14 58 -29 117 -46 175c-107 -121 -213 -243 -213 -403zM408 1045c-99 -48 -162 -149 -162 -259c0 -74 18 -133 36 -194
c80 97 146 198 146 324c0 55 -4 79 -20 129z" fill="currentColor"/>
<a style="color:inherit;" xlink:href="textedit:///Users/michel/Documents/Kitematic/musite/opt/musite/data/MesseBleue/ly/Abb-Jean-Robin-2002-Messe-de-Angelis.ly:25:1:2">
<path transform="translate(26.1364, 23.6600) scale(0.0040, -0.0040)" d="M315 65c0 24 -21 41 -42 41c-4 0 -8 0 -12 -1c-31 -9 -77 -40 -114 -64s-84 -53 -104 -78c-7 -8 -11 -18 -11 -28c0 -24 21 -41 42 -41c4 0 8 0 12 1c31 9 78 40 115 64s84 53 104 78c7 8 10 18 10 28zM264 137c47 0 83 -21 83 -72c0 -19 -4 -37 -10 -56
c-12 -38 -32 -74 -65 -96c-54 -36 -113 -51 -188 -51c-47 0 -84 22 -84 73c0 19 5 37 11 56c12 38 31 74 64 96c54 36 114 50 189 50z" fill="currentColor"/>
</a>
<rect transform="translate(60.2577, 21.6600)" x="-0.0650" y="-0.3122" width="0.1300" height="3.3122" ry="0.0400" fill="currentColor"/>
<rect transform="translate(14.1664, 31.4637)" x="0.0000" y="-11.8537" width="0.1600" height="23.7073" ry="0.0500" fill="currentColor"/>
<text transform="translate(6.5109, 42.0526)" font-family="Century Schoolbook L" font-size="2.2001" text-anchor="start" fill="currentColor">
<tspan>
Basse</tspan>
</text>
<text transform="translate(6.5109, 31.8522)" font-family="Century Schoolbook L" font-size="2.2001" text-anchor="start" fill="currentColor">
<tspan>
Ténor</tspan>
</text>
<text transform="translate(7.7572, 22.4453)" font-family="Century Schoolbook L" font-size="2.2001" text-anchor="start" fill="currentColor">
<tspan>
MS</tspan>
</text>
<a style="color:inherit;" xlink:href="textedit:///Users/michel/Documents/Kitematic/musite/opt/musite/data/MesseBleue/ly/Abb-Jean-Robin-2002-Messe-de-Angelis.ly:51:40:41">
<path transform="translate(84.0211, 39.2673) scale(0.0040, -0.0040)" d="M220 138c56 0 109 -29 109 -91c0 -72 -56 -121 -103 -149c-36 -21 -76 -36 -117 -36c-56 0 -109 29 -109 91c0 72 56 121 103 149c36 21 76 36 117 36z" fill="currentColor"/>
</a>
<a style="color:inherit;" xlink:href="textedit:///Users/michel/Documents/Kitematic/musite/opt/musite/data/MesseBleue/ly/Abb-Jean-Robin-2002-Messe-de-Angelis.ly:39:7:8">
<path transform="translate(84.0211, 30.5669) scale(0.0040, -0.0040)" d="M220 138c56 0 109 -29 109 -91c0 -72 -56 -121 -103 -149c-36 -21 -76 -36 -117 -36c-56 0 -109 29 -109 91c0 72 56 121 103 149c36 21 76 36 117 36z" fill="currentColor"/>
</a>
<a style="color:inherit;" xlink:href="textedit:///Users/michel/Documents/Kitematic/musite/opt/musite/data/MesseBleue/ly/Abb-Jean-Robin-2002-Messe-de-Angelis.ly:26:9:10">
<path transform="translate(84.0211, 23.1600) scale(0.0040, -0.0040)" d="M220 138c56 0 109 -29 109 -91c0 -72 -56 -121 -103 -149c-36 -21 -76 -36 -117 -36c-56 0 -109 29 -109 91c0 72 56 121 103 149c36 21 76 36 117 36z" fill="currentColor"/>
</a>
<path transform="translate(80.8950, 34.4019) scale(0.0040, -0.0040)" d="M0 0h-16v250h16c98 58 227 148 227 259c0 57 -16 112 -41 163c-3 16 10 27 23 27c7 0 15 -3 20 -11c25 -56 40 -117 40 -179c0 -204 -269 -305 -269 -509z" fill="currentColor"/>
<rect transform="translate(80.8300, 31.0669)" x="-0.0650" y="0.1878" width="0.1300" height="3.1872" ry="0.0400" fill="currentColor"/>
<path transform="translate(82.0811, 19.2000) scale(0.0040, -0.0040)" d="M0 0c0 -198 209 -335 209 -533c0 -71 -16 -141 -42 -207c-5 -8 -12 -12 -19 -12c-13 0 -26 11 -23 27c26 61 42 126 42 192c0 104 -95 208 -167 283h-16v250h16z" fill="currentColor"/>
<rect transform="translate(82.0161, 21.6600)" x="-0.0650" y="-2.5000" width="0.1300" height="3.3122" ry="0.0400" fill="currentColor"/>
<rect transform="translate(26.2014, 31.0669)" x="-0.0650" y="-1.3122" width="0.1300" height="3.3122" ry="0.0400" fill="currentColor"/>
<path transform="translate(27.9764, 40.7673) scale(0.0040, -0.0040)" d="M0 0c0 31 25 56 56 56s56 -25 56 -56s-25 -56 -56 -56s-56 25 -56 56z" fill="currentColor"/>
<rect transform="translate(26.2014, 41.2673)" x="-0.0650" y="-0.2386" width="0.1300" height="3.2386" ry="0.0400" fill="currentColor"/>
<rect transform="translate(108.8342, 31.0669)" x="-0.0650" y="0.2614" width="0.1300" height="3.0719" ry="0.0400" fill="currentColor"/>
<rect transform="translate(110.0942, 21.6600)" x="-0.0650" y="-2.5000" width="0.1300" height="3.2386" ry="0.0400" fill="currentColor"/>
<a style="color:inherit;" xlink:href="textedit:///Users/michel/Documents/Kitematic/musite/opt/musite/data/MesseBleue/ly/Abb-Jean-Robin-2002-Messe-de-Angelis.ly:56:61:62">
<text transform="translate(107.5351, 46.7673)" font-family="Century Schoolbook L" font-size="2.4696" text-anchor="start" fill="currentColor">
<tspan>
son</tspan>
</text>
</a>
<a style="color:inherit;" xlink:href="textedit:///Users/michel/Documents/Kitematic/musite/opt/musite/data/MesseBleue/ly/Abb-Jean-Robin-2002-Messe-de-Angelis.ly:51:74:75">
<path transform="translate(108.7692, 40.7673) scale(0.0040, -0.0040)" d="M315 65c0 24 -21 41 -42 41c-4 0 -8 0 -12 -1c-31 -9 -77 -40 -114 -64s-84 -53 -104 -78c-7 -8 -11 -18 -11 -28c0 -24 21 -41 42 -41c4 0 8 0 12 1c31 9 78 40 115 64s84 53 104 78c7 8 10 18 10 28zM264 137c47 0 83 -21 83 -72c0 -19 -4 -37 -10 -56
c-12 -38 -32 -74 -65 -96c-54 -36 -113 -51 -188 -51c-47 0 -84 22 -84 73c0 19 5 37 11 56c12 38 31 74 64 96c54 36 114 50 189 50z" fill="currentColor"/>
</a>
<a style="color:inherit;" xlink:href="textedit:///Users/michel/Documents/Kitematic/musite/opt/musite/data/MesseBleue/ly/Abb-Jean-Robin-2002-Messe-de-Angelis.ly:44:58:59">
<text transform="translate(107.5351, 36.6832)" font-family="Century Schoolbook L" font-size="2.4696" text-anchor="start" fill="currentColor">
<tspan>
son</tspan>
</text>
</a>
<a style="color:inherit;" xlink:href="textedit:///Users/michel/Documents/Kitematic/musite/opt/musite/data/MesseBleue/ly/Abb-Jean-Robin-2002-Messe-de-Angelis.ly:39:26:27">
<path transform="translate(108.7692, 31.0669) scale(0.0040, -0.0040)" d="M315 65c0 24 -21 41 -42 41c-4 0 -8 0 -12 -1c-31 -9 -77 -40 -114 -64s-84 -53 -104 -78c-7 -8 -11 -18 -11 -28c0 -24 21 -41 42 -41c4 0 8 0 12 1c31 9 78 40 115 64s84 53 104 78c7 8 10 18 10 28zM264 137c47 0 83 -21 83 -72c0 -19 -4 -37 -10 -56
c-12 -38 -32 -74 -65 -96c-54 -36 -113 -51 -188 -51c-47 0 -84 22 -84 73c0 19 5 37 11 56c12 38 31 74 64 96c54 36 114 50 189 50z" fill="currentColor"/>
</a>
<a style="color:inherit;" xlink:href="textedit:///Users/michel/Documents/Kitematic/musite/opt/musite/data/MesseBleue/ly/Abb-Jean-Robin-2002-Messe-de-Angelis.ly:31:63:64">
<text transform="translate(107.5351, 26.6884)" font-family="Century Schoolbook L" font-size="2.4696" text-anchor="start" fill="currentColor">
<tspan>
son</tspan>
</text>
</a>
<a style="color:inherit;" xlink:href="textedit:///Users/michel/Documents/Kitematic/musite/opt/musite/data/MesseBleue/ly/Abb-Jean-Robin-2002-Messe-de-Angelis.ly:27:7:8">
<path transform="translate(108.7692, 22.6600) scale(0.0040, -0.0040)" d="M315 65c0 24 -21 41 -42 41c-4 0 -8 0 -12 -1c-31 -9 -77 -40 -114 -64s-84 -53 -104 -78c-7 -8 -11 -18 -11 -28c0 -24 21 -41 42 -41c4 0 8 0 12 1c31 9 78 40 115 64s84 53 104 78c7 8 10 18 10 28zM264 137c47 0 83 -21 83 -72c0 -19 -4 -37 -10 -56
c-12 -38 -32 -74 -65 -96c-54 -36 -113 -51 -188 -51c-47 0 -84 22 -84 73c0 19 5 37 11 56c12 38 31 74 64 96c54 36 114 50 189 50z" fill="currentColor"/>
</a>
<rect transform="translate(106.7532, 41.2673)" x="-0.0650" y="-2.0000" width="0.1300" height="2.8122" ry="0.0400" fill="currentColor"/>
<rect transform="translate(105.5671, 31.0669)" x="-0.0650" y="-0.3122" width="0.1300" height="2.4984" ry="0.0400" fill="currentColor"/>
<path transform="translate(106.8182, 19.7000) scale(0.0040, -0.0040)" d="M0 0c0 -198 209 -335 209 -533c0 -71 -16 -141 -42 -207c-5 -8 -12 -12 -19 -12c-13 0 -26 11 -23 27c26 61 42 126 42 192c0 104 -95 208 -167 283h-16v250h16z" fill="currentColor"/>
<rect transform="translate(106.7532, 21.6600)" x="-0.0650" y="-2.0000" width="0.1300" height="3.3122" ry="0.0400" fill="currentColor"/>
<a style="color:inherit;" xlink:href="textedit:///Users/michel/Documents/Kitematic/musite/opt/musite/data/MesseBleue/ly/Abb-Jean-Robin-2002-Messe-de-Angelis.ly:56:56:57">
<text transform="translate(105.7675, 46.7673)" font-family="Century Schoolbook L" font-size="2.4696" text-anchor="start" fill="currentColor">
<tspan>
i</tspan>
</text>
</a>
<a style="color:inherit;" xlink:href="textedit:///Users/michel/Documents/Kitematic/musite/opt/musite/data/MesseBleue/ly/Abb-Jean-Robin-2002-Messe-de-Angelis.ly:51:70:71">
<path transform="translate(105.5021, 42.2673) scale(0.0040, -0.0040)" d="M220 138c56 0 109 -29 109 -91c0 -72 -56 -121 -103 -149c-36 -21 -76 -36 -117 -36c-56 0 -109 29 -109 91c0 72 56 121 103 149c36 21 76 36 117 36z" fill="currentColor"/>
</a>
<a style="color:inherit;" xlink:href="textedit:///Users/michel/Documents/Kitematic/musite/opt/musite/data/MesseBleue/ly/Abb-Jean-Robin-2002-Messe-de-Angelis.ly:44:53:54">
<text transform="translate(105.7675, 36.6832)" font-family="Century Schoolbook L" font-size="2.4696" text-anchor="start" fill="currentColor">
<tspan>
i</tspan>
</text>
</a>
<a style="color:inherit;" xlink:href="textedit:///Users/michel/Documents/Kitematic/musite/opt/musite/data/MesseBleue/ly/Abb-Jean-Robin-2002-Messe-de-Angelis.ly:39:22:23">
<path transform="translate(105.5021, 30.5669) scale(0.0040, -0.0040)" d="M220 138c56 0 109 -29 109 -91c0 -72 -56 -121 -103 -149c-36 -21 -76 -36 -117 -36c-56 0 -109 29 -109 91c0 72 56 121 103 149c36 21 76 36 117 36z" fill="currentColor"/>
</a>
<a style="color:inherit;" xlink:href="textedit:///Users/michel/Documents/Kitematic/musite/opt/musite/data/MesseBleue/ly/Abb-Jean-Robin-2002-Messe-de-Angelis.ly:31:58:59">
<text transform="translate(105.7675, 26.6884)" font-family="Century Schoolbook L" font-size="2.4696" text-anchor="start" fill="currentColor">
<tspan>
i</tspan>
</text>
</a>
<a style="color:inherit;" xlink:href="textedit:///Users/michel/Documents/Kitematic/musite/opt/musite/data/MesseBleue/ly/Abb-Jean-Robin-2002-Messe-de-Angelis.ly:27:4:5">
<path transform="translate(105.5021, 23.1600) scale(0.0040, -0.0040)" d="M220 138c56 0 109 -29 109 -91c0 -72 -56 -121 -103 -149c-36 -21 -76 -36 -117 -36c-56 0 -109 29 -109 91c0 72 56 121 103 149c36 21 76 36 117 36z" fill="currentColor"/>
</a>
<a style="color:inherit;" xlink:href="textedit:///Users/michel/Documents/Kitematic/musite/opt/musite/data/MesseBleue/ly/Abb-Jean-Robin-2002-Messe-de-Angelis.ly:38:8:9">
<path transform="translate(33.2388, 30.5669) scale(0.0040, -0.0040)" d="M220 138c56 0 109 -29 109 -91c0 -72 -56 -121 -103 -149c-36 -21 -76 -36 -117 -36c-56 0 -109 29 -109 91c0 72 56 121 103 149c36 21 76 36 117 36z" fill="currentColor"/>
</a>
<rect transform="translate(30.1887, 31.0669)" x="-0.0650" y="-0.8122" width="0.1300" height="2.8160" ry="0.0400" fill="currentColor"/>
<a style="color:inherit;" xlink:href="textedit:///Users/michel/Documents/Kitematic/musite/opt/musite/data/MesseBleue/ly/Abb-Jean-Robin-2002-Messe-de-Angelis.ly:44:6:7">
<text transform="translate(30.1237, 36.6832)" font-family="Century Schoolbook L" font-size="2.4696" text-anchor="start" fill="currentColor">
<tspan>
-</tspan>
</text>
</a>
<a style="color:inherit;" xlink:href="textedit:///Users/michel/Documents/Kitematic/musite/opt/musite/data/MesseBleue/ly/Abb-Jean-Robin-2002-Messe-de-Angelis.ly:38:5:6">
<path transform="translate(30.1237, 30.0669) scale(0.0040, -0.0040)" d="M220 138c56 0 109 -29 109 -91c0 -72 -56 -121 -103 -149c-36 -21 -76 -36 -117 -36c-56 0 -109 29 -109 91c0 72 56 121 103 149c36 21 76 36 117 36z" fill="currentColor"/>
</a>
<rect transform="translate(108.8342, 41.2673)" x="-0.0650" y="-0.2386" width="0.1300" height="3.2386" ry="0.0400" fill="currentColor"/>
<rect transform="translate(98.8258, 41.2673)" x="-0.0650" y="-2.3122" width="0.1300" height="3.3122" ry="0.0400" fill="currentColor"/>
<rect transform="translate(98.8258, 31.0669)" x="-0.0650" y="-1.3122" width="0.1300" height="3.3122" ry="0.0400" fill="currentColor"/>
<rect transform="translate(100.0120, 21.6600)" x="-0.0650" y="-2.0000" width="0.1300" height="3.3122" ry="0.0400" fill="currentColor"/>
<path transform="translate(100.5270, 23.1600) scale(0.0040, -0.0040)" d="M0 0c0 31 25 56 56 56s56 -25 56 -56s-25 -56 -56 -56s-56 25 -56 56z" fill="currentColor"/>
<a style="color:inherit;" xlink:href="textedit:///Users/michel/Documents/Kitematic/musite/opt/musite/data/MesseBleue/ly/Abb-Jean-Robin-2002-Messe-de-Angelis.ly:56:48:49">
<text transform="translate(98.7608, 46.7673)" font-family="Century Schoolbook L" font-size="2.4696" text-anchor="start" fill="currentColor">
<tspan>
le</tspan>
</text>
</a>
<a style="color:inherit;" xlink:href="textedit:///Users/michel/Documents/Kitematic/musite/opt/musite/data/MesseBleue/ly/Abb-Jean-Robin-2002-Messe-de-Angelis.ly:51:59:60">
<path transform="translate(98.7608, 38.7673) scale(0.0040, -0.0040)" d="M220 138c56 0 109 -29 109 -91c0 -72 -56 -121 -103 -149c-36 -21 -76 -36 -117 -36c-56 0 -109 29 -109 91c0 72 56 121 103 149c36 21 76 36 117 36z" fill="currentColor"/>
</a>
<a style="color:inherit;" xlink:href="textedit:///Users/michel/Documents/Kitematic/musite/opt/musite/data/MesseBleue/ly/Abb-Jean-Robin-2002-Messe-de-Angelis.ly:44:42:43">
<text transform="translate(98.7608, 36.6832)" font-family="Century Schoolbook L" font-size="2.4696" text-anchor="start" fill="currentColor">
<tspan>
le</tspan>
</text>
</a>
<a style="color:inherit;" xlink:href="textedit:///Users/michel/Documents/Kitematic/musite/opt/musite/data/MesseBleue/ly/Abb-Jean-Robin-2002-Messe-de-Angelis.ly:39:15:16">
<path transform="translate(98.7608, 29.5669) scale(0.0040, -0.0040)" d="M220 138c56 0 109 -29 109 -91c0 -72 -56 -121 -103 -149c-36 -21 -76 -36 -117 -36c-56 0 -109 29 -109 91c0 72 56 121 103 149c36 21 76 36 117 36z" fill="currentColor"/>
</a>
<a style="color:inherit;" xlink:href="textedit:///Users/michel/Documents/Kitematic/musite/opt/musite/data/MesseBleue/ly/Abb-Jean-Robin-2002-Messe-de-Angelis.ly:31:52:53">
<text transform="translate(98.4116, 26.6884)" font-family="Century Schoolbook L" font-size="2.4696" text-anchor="start" fill="currentColor">
<tspan>
le</tspan>
</text>
</a>
<a style="color:inherit;" xlink:href="textedit:///Users/michel/Documents/Kitematic/musite/opt/musite/data/MesseBleue/ly/Abb-Jean-Robin-2002-Messe-de-Angelis.ly:27:0:1">
<path transform="translate(98.7608, 23.1600) scale(0.0040, -0.0040)" d="M220 138c56 0 109 -29 109 -91c0 -72 -56 -121 -103 -149c-36 -21 -76 -36 -117 -36c-56 0 -109 29 -109 91c0 72 56 121 103 149c36 21 76 36 117 36z" fill="currentColor"/>
</a>
<rect transform="translate(103.6381, 41.2673)" x="-0.0650" y="-2.0000" width="0.1300" height="2.8122" ry="0.0400" fill="currentColor"/>
<rect transform="translate(102.4519, 31.0669)" x="-0.0650" y="-0.8122" width="0.1300" height="2.8160" ry="0.0400" fill="currentColor"/>
<a style="color:inherit;" xlink:href="textedit:///Users/michel/Documents/Kitematic/musite/opt/musite/data/MesseBleue/ly/Abb-Jean-Robin-2002-Messe-de-Angelis.ly:51:64:65">
<path transform="translate(102.3869, 42.2673) scale(0.0040, -0.0040)" d="M220 138c56 0 109 -29 109 -91c0 -72 -56 -121 -103 -149c-36 -21 -76 -36 -117 -36c-56 0 -109 29 -109 91c0 72 56 121 103 149c36 21 76 36 117 36z" fill="currentColor"/>
</a>
<a style="color:inherit;" xlink:href="textedit:///Users/michel/Documents/Kitematic/musite/opt/musite/data/MesseBleue/ly/Abb-Jean-Robin-2002-Messe-de-Angelis.ly:39:19:20">
<path transform="translate(102.3869, 30.0669) scale(0.0040, -0.0040)" d="M220 138c56 0 109 -29 109 -91c0 -72 -56 -121 -103 -149c-36 -21 -76 -36 -117 -36c-56 0 -109 29 -109 91c0 72 56 121 103 149c36 21 76 36 117 36z" fill="currentColor"/>
</a>
</svg>
